<svg xmlns="http://www.w3.org/2000/svg" class="icon icon-tabler icon-tabler-resize" width="500" height="500" viewBox="0 0 24 24" stroke-width="2" stroke="white" fill="none" stroke-linecap="round" stroke-linejoin="round" style="border-radius: 4px;">
   <path stroke="none" d="M0 0h24v24H0z" fill="#1971C2" stroke-linecap="round"></path>
   <path d="M4 11v8a1 1 0 0 0 1 1h8m-9 -14v-1a1 1 0 0 1 1 -1h1m5 0h2m5 0h1a1 1 0 0 1 1 1v1m0 5v2m0 5v1a1 1 0 0 1 -1 1h-1"></path>
   <path d="M4 12h7a1 1 0 0 1 1 1v7"></path>
</svg>
